<?xml version="1.0" encoding="utf-8"?>
<!-- Generator: Adobe Illustrator 16.0.0, SVG Export Plug-In . SVG Version: 6.00 Build 0)  -->
<!DOCTYPE svg PUBLIC "-//W3C//DTD SVG 1.1//EN" "http://www.w3.org/Graphics/SVG/1.1/DTD/svg11.dtd">
<svg version="1.1" id="Calque_1" xmlns="http://www.w3.org/2000/svg" xmlns:xlink="http://www.w3.org/1999/xlink" x="0px" y="0px"
	 width="65px" height="65px" viewBox="0 0 65 65" enable-background="new 0 0 65 65" xml:space="preserve">
<g>
	<rect x="-31.702" y="-2.257" fill="#6B2A16" width="111.388" height="68.576"/>
	<polygon fill="#783117" points="79.686,66.318 -31.702,66.318 79.686,-2.257 	"/>
	<g>
		<rect x="-31.702" y="-1.767" fill="#4A2110" width="8.503" height="8.013"/>
		<rect x="-22.4" y="-1.767" fill="#4A2110" width="18.663" height="8.262"/>
		<rect x="-2.506" y="-1.767" fill="#4A2110" width="18.231" height="8.013"/>
		<rect x="16.956" y="-1.767" fill="#4A2110" width="17.316" height="8.013"/>
		<rect x="35.5" y="-1.767" fill="#4A2110" width="17.314" height="8.013"/>
		<rect x="54.043" y="-1.767" fill="#4A2110" width="16.029" height="8.013"/>
		<rect x="-31.702" y="7.477" fill="#4A2110" width="18.051" height="8.132"/>
		<rect x="-12.421" y="7.477" fill="#4A2110" width="17.865" height="8.132"/>
		<rect x="26.687" y="7.477" fill="#4A2110" width="16.762" height="8.132"/>
		<rect x="62.121" y="7.477" fill="#4A2110" width="17.564" height="8.132"/>
		<rect x="44.678" y="7.477" fill="#4A2110" width="16.215" height="8.132"/>
		<rect x="6.673" y="7.477" fill="#4A2110" width="18.785" height="8.132"/>
		<rect x="-31.702" y="26.572" fill="#4A2110" width="18.051" height="8.867"/>
		<rect x="-12.421" y="26.572" fill="#4A2110" width="17.865" height="8.867"/>
		<rect x="6.673" y="26.572" fill="#4A2110" width="18.785" height="8.867"/>
		<rect x="26.687" y="26.572" fill="#4A2110" width="16.762" height="8.867"/>
		<rect x="62.121" y="26.572" fill="#4A2110" width="17.564" height="8.867"/>
		<rect x="44.678" y="26.572" fill="#4A2110" width="16.215" height="8.867"/>
		<rect x="-31.702" y="36.668" fill="#4A2110" width="8.503" height="9.42"/>
		<rect x="-21.968" y="36.668" fill="#4A2110" width="18.231" height="9.42"/>
		<rect x="-2.506" y="36.668" fill="#4A2110" width="18.231" height="9.42"/>
		<rect x="16.956" y="36.668" fill="#4A2110" width="17.316" height="9.42"/>
		<rect x="54.043" y="36.668" fill="#4A2110" width="16.029" height="9.42"/>
		<rect x="35.5" y="36.668" fill="#4A2110" width="17.314" height="9.42"/>
		<rect x="-31.702" y="47.318" fill="#4A2110" width="18.051" height="9.234"/>
		<rect x="-12.421" y="47.318" fill="#4A2110" width="17.865" height="9.234"/>
		<rect x="44.678" y="47.318" fill="#4A2110" width="16.215" height="9.234"/>
		<rect x="62.121" y="47.318" fill="#4A2110" width="17.564" height="9.234"/>
		<rect x="26.687" y="47.318" fill="#4A2110" width="16.762" height="9.234"/>
		<rect x="6.673" y="47.318" fill="#4A2110" width="18.785" height="9.234"/>
		<rect x="-31.702" y="57.785" fill="#4A2110" width="8.503" height="8.563"/>
		<rect x="-21.968" y="57.785" fill="#4A2110" width="18.231" height="8.563"/>
		<rect x="-2.506" y="57.785" fill="#4A2110" width="18.231" height="8.563"/>
		<rect x="16.956" y="57.785" fill="#4A2110" width="17.316" height="8.563"/>
		<rect x="35.5" y="57.785" fill="#4A2110" width="17.314" height="8.563"/>
		<rect x="54.043" y="57.785" fill="#4A2110" width="16.029" height="8.563"/>
		<rect x="-31.702" y="16.841" fill="#4A2110" width="8.503" height="8.5"/>
		<rect x="71.115" y="-1.767" fill="#4A2110" width="8.506" height="8.013"/>
		<rect x="71.115" y="36.668" fill="#4A2110" width="8.506" height="9.42"/>
		<rect x="71.115" y="57.785" fill="#4A2110" width="8.506" height="8.563"/>
		<rect x="71.115" y="16.841" fill="#4A2110" width="8.506" height="8.5"/>
		<rect x="-21.968" y="16.841" fill="#4A2110" width="18.231" height="8.5"/>
		<rect x="-2.506" y="16.841" fill="#4A2110" width="18.231" height="8.5"/>
		<rect x="16.956" y="16.841" fill="#4A2110" width="17.316" height="8.5"/>
		<rect x="35.5" y="16.841" fill="#4A2110" width="17.314" height="8.5"/>
		<rect x="54.043" y="16.841" fill="#4A2110" width="16.029" height="8.5"/>
	</g>
	<g>
		<rect x="-31.702" y="-2.257" fill="#E85A37" width="8.503" height="8.014"/>
		<rect x="-22.4" y="-2.257" fill="#DA4F32" width="18.663" height="8.263"/>
		<rect x="-2.506" y="-2.257" fill="#EB6C3A" width="18.231" height="8.014"/>
		<rect x="16.956" y="-2.257" fill="#E85A37" width="17.316" height="8.014"/>
		<rect x="35.5" y="-2.257" fill="#E85A37" width="17.314" height="8.014"/>
		<rect x="54.043" y="-2.257" fill="#DA4F32" width="16.029" height="8.014"/>
		<rect x="-31.702" y="6.987" fill="#EB6C3A" width="18.051" height="8.134"/>
		<rect x="-12.421" y="6.987" fill="#E85A37" width="17.865" height="8.134"/>
		<rect x="26.687" y="6.987" fill="#E85A37" width="16.762" height="8.134"/>
		<rect x="62.121" y="6.987" fill="#EB6C3A" width="17.564" height="8.134"/>
		<rect x="44.678" y="6.987" fill="#E85A37" width="16.215" height="8.134"/>
		<rect x="6.673" y="6.987" fill="#E85A37" width="18.785" height="8.134"/>
		<rect x="-31.702" y="26.081" fill="#E85A37" width="18.051" height="8.87"/>
		<rect x="-12.421" y="26.081" fill="#DA4F32" width="17.865" height="8.87"/>
		<rect x="6.673" y="26.081" fill="#E85A37" width="18.785" height="8.87"/>
		<rect x="26.687" y="26.081" fill="#EB6C3A" width="16.762" height="8.87"/>
		<rect x="62.121" y="26.081" fill="#E85A37" width="17.564" height="8.87"/>
		<rect x="44.678" y="26.081" fill="#E85A37" width="16.215" height="8.87"/>
		<rect x="-31.702" y="36.18" fill="#E85A37" width="8.503" height="9.42"/>
		<rect x="-21.968" y="36.18" fill="#EB6C3A" width="18.231" height="9.42"/>
		<rect x="-2.506" y="36.18" fill="#E85A37" width="18.231" height="9.42"/>
		<rect x="16.956" y="36.18" fill="#DA4F32" width="17.316" height="9.42"/>
		<rect x="54.043" y="36.18" fill="#E85A37" width="16.029" height="9.42"/>
		<rect x="35.5" y="36.18" fill="#E85A37" width="17.314" height="9.42"/>
		<rect x="-31.702" y="46.83" fill="#E85A37" width="18.051" height="9.234"/>
		<rect x="-12.421" y="46.83" fill="#E85A37" width="17.865" height="9.234"/>
		<rect x="44.678" y="46.83" fill="#E85A37" width="16.215" height="9.234"/>
		<rect x="62.121" y="46.83" fill="#EB6C3A" width="17.564" height="9.234"/>
		<rect x="26.687" y="46.83" fill="#E85A37" width="16.762" height="9.234"/>
		<rect x="6.673" y="46.83" fill="#E85A37" width="18.785" height="9.234"/>
		<rect x="-31.702" y="57.295" fill="#E85A37" width="8.503" height="8.564"/>
		<rect x="-21.968" y="57.295" fill="#DA4F32" width="18.231" height="8.564"/>
		<rect x="-2.506" y="57.295" fill="#E85A37" width="18.231" height="8.564"/>
		<rect x="16.956" y="57.295" fill="#EB6C3A" width="17.316" height="8.564"/>
		<rect x="35.5" y="57.295" fill="#DA4F32" width="17.314" height="8.564"/>
		<rect x="54.043" y="57.295" fill="#E85A37" width="16.029" height="8.564"/>
		<rect x="-31.702" y="16.351" fill="#E85A37" width="8.503" height="8.501"/>
		<rect x="71.186" y="-2.257" fill="#E85A37" width="8.504" height="8.014"/>
		<rect x="71.186" y="36.18" fill="#E85A37" width="8.504" height="9.42"/>
		<rect x="71.186" y="57.295" fill="#E85A37" width="8.504" height="8.564"/>
		<rect x="71.186" y="16.351" fill="#E85A37" width="8.504" height="8.501"/>
		<rect x="-21.968" y="16.351" fill="#E85A37" width="18.231" height="8.501"/>
		<rect x="-2.506" y="16.351" fill="#E85A37" width="18.231" height="8.501"/>
		<rect x="16.956" y="16.351" fill="#DA4F32" width="17.316" height="8.501"/>
		<rect x="35.5" y="16.351" fill="#E85A37" width="17.314" height="8.501"/>
		<rect x="54.043" y="16.351" fill="#E85A37" width="16.029" height="8.501"/>
	</g>
	<rect x="-31.702" y="-5.44" fill="#C65233" width="111.354" height="4.039"/>
	<rect x="-31.702" y="-1.402" fill="#7D361C" width="111.354" height="1.102"/>
	<defs>
		<filter id="Adobe_OpacityMaskFilter" filterUnits="userSpaceOnUse" x="-30.846" y="-4.644" width="108.695" height="2.021">
			<feFlood  style="flood-color:white;flood-opacity:1" result="back"/>
			<feBlend  in="SourceGraphic" in2="back" mode="normal"/>
		</filter>
	</defs>
	<mask maskUnits="userSpaceOnUse" x="-30.846" y="-4.644" width="108.695" height="2.021" id="SVGID_1_">
		<g filter="url(#Adobe_OpacityMaskFilter)">
			<defs>
				<filter id="Adobe_OpacityMaskFilter_1_" filterUnits="userSpaceOnUse" x="-30.846" y="-4.644" width="108.695" height="2.021">
					<feFlood  style="flood-color:white;flood-opacity:1" result="back"/>
					<feBlend  in="SourceGraphic" in2="back" mode="normal"/>
				</filter>
			</defs>
			<mask maskUnits="userSpaceOnUse" x="-30.846" y="-4.644" width="108.695" height="2.021" id="SVGID_1_">
				<g filter="url(#Adobe_OpacityMaskFilter_1_)">
				</g>
			</mask>
			<radialGradient id="SVGID_2_" cx="20.1973" cy="-22.8286" r="37.5455" gradientUnits="userSpaceOnUse">
				<stop  offset="0.0022" style="stop-color:#FFFFFF"/>
				<stop  offset="0.1645" style="stop-color:#FCFCFC"/>
				<stop  offset="0.2947" style="stop-color:#F2F2F2"/>
				<stop  offset="0.4138" style="stop-color:#E1E1E1"/>
				<stop  offset="0.5262" style="stop-color:#C9C9C9"/>
				<stop  offset="0.6341" style="stop-color:#AAAAAA"/>
				<stop  offset="0.7384" style="stop-color:#858585"/>
				<stop  offset="0.8401" style="stop-color:#585858"/>
				<stop  offset="0.937" style="stop-color:#252525"/>
				<stop  offset="1" style="stop-color:#000000"/>
			</radialGradient>
			<polygon mask="url(#SVGID_1_)" fill="url(#SVGID_2_)" points="77.85,-4.644 -30.846,-4.644 -30.846,-2.624 			"/>
		</g>
	</mask>
	<radialGradient id="SVGID_3_" cx="20.1973" cy="-22.8286" r="37.5455" gradientUnits="userSpaceOnUse">
		<stop  offset="0.0022" style="stop-color:#FFFFFF"/>
		<stop  offset="0.9102" style="stop-color:#FFFFFF"/>
		<stop  offset="1" style="stop-color:#FFFFFF"/>
	</radialGradient>
	<polygon fill="url(#SVGID_3_)" points="77.85,-4.644 -30.846,-4.644 -30.846,-2.624 	"/>
	<g>
		<path fill="#EF8047" d="M-17.556,31.725c0.006-0.078,0.005-0.158,0-0.237c-0.008-0.111-0.052-0.241-0.11-0.337
			c-0.099-0.164-0.229-0.344-0.389-0.456c-0.332-0.235-0.727-0.067-0.985,0.198c-0.042,0.043-0.08,0.097-0.114,0.153
			c-0.366,0.233-0.604,0.712-0.65,1.126c-0.027,0.234,0.059,0.516,0.305,0.598c0.206,0.074,0.37,0.064,0.583,0.041
			c0.023-0.002,0.046-0.006,0.069-0.008c0.014-0.002,0.054-0.008,0.081-0.006c0.522,0.02,0.973-0.33,1.154-0.811
			c0.016-0.066,0.032-0.131,0.049-0.194C-17.62,31.982-17.617,31.96-17.556,31.725z"/>
		<path fill="#EF8047" d="M-16.287,27.831c-0.12-0.158-0.394-0.003-0.485,0.097c-0.01,0.01-0.018,0.021-0.027,0.033
			c-0.288,0.16-0.416,0.582-0.027,0.734c0.241,0.094,0.483-0.055,0.619-0.249C-16.053,28.223-16.145,28.021-16.287,27.831z"/>
		<path fill="#EF8047" d="M-26.259,27.5c-0.033-0.031-0.072-0.053-0.12-0.061c-0.065-0.029-0.127-0.055-0.184-0.066
			c-0.23-0.055-0.452,0.129-0.485,0.358c-0.025,0.159-0.067,0.315-0.085,0.472c-0.075,0.254-0.083,0.522,0.031,0.749
			c0.073,0.146,0.217,0.168,0.362,0.151c0.517-0.057,1.012-0.401,1.009-0.955C-25.732,27.9-25.998,27.652-26.259,27.5z"/>
		<path fill="#EF8047" d="M-23.169,31.016c-0.062-0.162-0.162-0.352-0.278-0.482c-0.191-0.218-0.563-0.031-0.702,0.148
			c-0.001,0-0.001,0.002-0.003,0.003c-0.223,0.153-0.379,0.386-0.421,0.655c-0.093,0.6,0.746,0.666,1.101,0.435
			C-23.23,31.616-23.063,31.3-23.169,31.016z"/>
		<path fill="#EF8047" d="M-29.592,32.826c-0.037,0.02-0.072,0.039-0.106,0.059c-0.06,0.014-0.119,0.045-0.174,0.076
			c-0.114,0.066-0.194,0.227-0.179,0.357c0.027,0.219,0.231,0.289,0.422,0.271c0.217-0.02,0.368-0.244,0.398-0.441
			C-29.198,32.943-29.382,32.732-29.592,32.826z"/>
		<path fill="#EF8047" d="M-27.831,32.074c-0.017-0.007-0.033-0.012-0.051-0.018c-0.229-0.077-0.312,0.346-0.105,0.291
			c0.02-0.007,0.042-0.014,0.062-0.02C-27.844,32.309-27.687,32.121-27.831,32.074z"/>
	</g>
	<g>
		<path fill="#E85A37" d="M31.1,21.991c0.005-0.078,0.005-0.157,0-0.234c-0.009-0.112-0.054-0.242-0.111-0.338
			c-0.1-0.163-0.229-0.343-0.389-0.456c-0.332-0.234-0.728-0.067-0.984,0.198c-0.042,0.045-0.081,0.097-0.114,0.154
			c-0.366,0.234-0.604,0.712-0.651,1.125c-0.025,0.236,0.059,0.514,0.307,0.6c0.205,0.072,0.369,0.064,0.583,0.041
			c0.021-0.004,0.047-0.008,0.067-0.013c0.016-0.001,0.055-0.005,0.082-0.004c0.521,0.019,0.972-0.329,1.153-0.81
			c0.018-0.064,0.031-0.13,0.047-0.195C31.036,22.252,31.037,22.229,31.1,21.991z"/>
		<path fill="#E85A37" d="M32.367,18.099c-0.118-0.159-0.391-0.002-0.483,0.099c-0.01,0.008-0.018,0.021-0.027,0.03
			c-0.287,0.162-0.415,0.584-0.024,0.737c0.24,0.092,0.482-0.056,0.615-0.249C32.601,18.493,32.51,18.29,32.367,18.099z"/>
		<path fill="#E85A37" d="M22.396,17.77c-0.033-0.033-0.073-0.055-0.122-0.062c-0.063-0.03-0.125-0.055-0.18-0.067
			c-0.232-0.055-0.454,0.129-0.488,0.36c-0.024,0.158-0.067,0.313-0.085,0.469c-0.073,0.254-0.082,0.525,0.032,0.749
			c0.071,0.146,0.216,0.169,0.361,0.153c0.519-0.058,1.013-0.399,1.01-0.955C22.922,18.171,22.658,17.92,22.396,17.77z"/>
		<path fill="#E85A37" d="M25.486,21.288c-0.062-0.166-0.163-0.353-0.278-0.485c-0.191-0.218-0.563-0.031-0.701,0.148
			c-0.001,0-0.001,0.001-0.002,0.001c-0.224,0.153-0.38,0.388-0.423,0.657c-0.094,0.599,0.746,0.667,1.103,0.434
			C25.424,21.885,25.591,21.567,25.486,21.288z"/>
		<path fill="#E85A37" d="M19.063,23.096c-0.036,0.018-0.072,0.039-0.106,0.062c-0.061,0.01-0.119,0.04-0.173,0.071
			c-0.115,0.067-0.196,0.228-0.178,0.359c0.026,0.218,0.228,0.288,0.421,0.27c0.217-0.019,0.367-0.244,0.398-0.44
			C19.457,23.212,19.273,23.004,19.063,23.096z"/>
		<path fill="#E85A37" d="M20.824,22.342c-0.015-0.006-0.033-0.011-0.05-0.018c-0.229-0.074-0.313,0.348-0.106,0.292
			c0.021-0.007,0.042-0.012,0.063-0.018C20.811,22.577,20.969,22.39,20.824,22.342z"/>
	</g>
	<g>
		<path fill="#C6492C" d="M2.077,52.379c0.004-0.078,0.004-0.158-0.002-0.238c-0.007-0.111-0.051-0.24-0.11-0.338
			c-0.098-0.164-0.226-0.342-0.386-0.457c-0.335-0.232-0.729-0.064-0.986,0.199c-0.042,0.045-0.081,0.098-0.115,0.156
			c-0.367,0.23-0.603,0.711-0.65,1.123c-0.026,0.238,0.059,0.516,0.307,0.6c0.204,0.072,0.369,0.064,0.583,0.041
			c0.023-0.002,0.044-0.008,0.069-0.01c0.015,0,0.053-0.008,0.081-0.004c0.522,0.018,0.972-0.328,1.153-0.811
			c0.017-0.066,0.033-0.131,0.048-0.195C2.012,52.637,2.015,52.613,2.077,52.379z"/>
		<path fill="#C6492C" d="M3.344,48.484c-0.119-0.16-0.393-0.002-0.485,0.098c-0.009,0.01-0.017,0.021-0.026,0.031
			c-0.289,0.16-0.416,0.582-0.027,0.734c0.241,0.096,0.483-0.055,0.618-0.248C3.579,48.877,3.487,48.676,3.344,48.484z"/>
		<path fill="#C6492C" d="M-6.627,48.154c-0.034-0.033-0.074-0.055-0.121-0.061c-0.065-0.031-0.127-0.055-0.183-0.068
			c-0.231-0.053-0.452,0.131-0.487,0.361c-0.025,0.156-0.069,0.313-0.085,0.469c-0.075,0.254-0.083,0.525,0.032,0.752
			c0.074,0.146,0.216,0.166,0.362,0.15c0.517-0.057,1.012-0.402,1.009-0.955C-6.102,48.553-6.364,48.305-6.627,48.154z"/>
		<path fill="#C6492C" d="M-3.538,51.67c-0.061-0.164-0.163-0.352-0.277-0.484c-0.193-0.217-0.564-0.029-0.703,0.148
			c-0.002,0-0.002,0.004-0.002,0.004c-0.224,0.152-0.38,0.387-0.421,0.658c-0.094,0.598,0.746,0.662,1.101,0.434
			C-3.598,52.271-3.432,51.955-3.538,51.67z"/>
		<path fill="#C6492C" d="M-9.961,53.48c-0.036,0.018-0.072,0.037-0.106,0.061c-0.062,0.012-0.118,0.041-0.173,0.072
			c-0.115,0.066-0.195,0.229-0.178,0.359c0.026,0.217,0.229,0.287,0.42,0.27c0.218-0.02,0.368-0.244,0.399-0.439
			C-9.566,53.598-9.75,53.387-9.961,53.48z"/>
		<path fill="#C6492C" d="M-8.199,52.727c-0.017-0.004-0.032-0.012-0.05-0.018C-8.479,52.635-8.561,53.055-8.357,53
			c0.021-0.006,0.044-0.012,0.065-0.018C-8.214,52.963-8.054,52.775-8.199,52.727z"/>
	</g>
	<g>
		<path fill="#C6492C" d="M30.12,62.922c0.006-0.078,0.005-0.156,0-0.234c-0.008-0.113-0.053-0.244-0.11-0.34
			c-0.1-0.166-0.229-0.344-0.387-0.457c-0.334-0.23-0.728-0.064-0.987,0.199c-0.043,0.045-0.079,0.1-0.113,0.154
			c-0.366,0.232-0.605,0.715-0.651,1.123c-0.027,0.236,0.06,0.518,0.307,0.604c0.206,0.07,0.37,0.064,0.583,0.039
			c0.021-0.004,0.045-0.008,0.067-0.012c0.016,0,0.055-0.004,0.081-0.002c0.522,0.018,0.974-0.33,1.155-0.813
			c0.016-0.064,0.031-0.129,0.047-0.193C30.055,63.182,30.059,63.158,30.12,62.922z"/>
		<path fill="#C6492C" d="M31.386,59.027c-0.118-0.158-0.392-0.002-0.482,0.098c-0.01,0.01-0.02,0.021-0.028,0.033
			c-0.288,0.162-0.414,0.582-0.026,0.734c0.242,0.094,0.482-0.055,0.619-0.248C31.624,59.42,31.529,59.219,31.386,59.027z"/>
		<path fill="#C6492C" d="M21.416,58.699c-0.032-0.033-0.073-0.055-0.121-0.063c-0.063-0.031-0.127-0.053-0.181-0.066
			c-0.231-0.053-0.453,0.131-0.486,0.359c-0.025,0.158-0.069,0.314-0.086,0.471c-0.073,0.254-0.083,0.521,0.033,0.752
			c0.072,0.143,0.216,0.164,0.358,0.15c0.52-0.057,1.014-0.402,1.011-0.957C21.943,59.098,21.677,58.85,21.416,58.699z"/>
		<path fill="#C6492C" d="M24.507,62.215c-0.062-0.164-0.164-0.352-0.279-0.484c-0.192-0.217-0.564-0.027-0.701,0.15
			c-0.001,0-0.001,0-0.002,0.002c-0.225,0.15-0.38,0.387-0.422,0.656c-0.094,0.598,0.746,0.664,1.101,0.434
			C24.444,62.814,24.612,62.498,24.507,62.215z"/>
		<path fill="#C6492C" d="M18.083,64.027c-0.036,0.014-0.07,0.037-0.106,0.059c-0.06,0.01-0.119,0.041-0.172,0.072
			c-0.113,0.066-0.196,0.227-0.18,0.361c0.028,0.215,0.229,0.285,0.422,0.268c0.217-0.02,0.368-0.246,0.399-0.441
			C18.477,64.143,18.294,63.932,18.083,64.027z"/>
		<path fill="#C6492C" d="M19.846,63.27c-0.018-0.004-0.035-0.012-0.052-0.018c-0.229-0.072-0.313,0.35-0.107,0.293
			c0.021-0.006,0.044-0.012,0.063-0.018C19.831,63.506,19.99,63.318,19.846,63.27z"/>
	</g>
	<g>
		<path fill="#C6492C" d="M58.076,12.352c0.004-0.078,0.004-0.157,0-0.236c-0.008-0.112-0.053-0.242-0.111-0.34
			c-0.1-0.162-0.229-0.342-0.389-0.456c-0.334-0.231-0.727-0.066-0.984,0.199c-0.043,0.045-0.08,0.099-0.115,0.154
			c-0.367,0.235-0.604,0.714-0.648,1.125c-0.029,0.235,0.057,0.514,0.305,0.601c0.205,0.072,0.369,0.064,0.582,0.039
			c0.023-0.002,0.045-0.007,0.068-0.009c0.016-0.002,0.055-0.006,0.082-0.006c0.521,0.02,0.973-0.328,1.154-0.809
			c0.016-0.066,0.031-0.129,0.049-0.195C58.012,12.611,58.014,12.589,58.076,12.352z"/>
		<path fill="#C6492C" d="M59.342,8.458c-0.119-0.158-0.391-0.001-0.484,0.097c-0.008,0.012-0.016,0.022-0.025,0.034
			c-0.287,0.161-0.416,0.583-0.027,0.735c0.242,0.094,0.482-0.055,0.619-0.25C59.578,8.852,59.486,8.648,59.342,8.458z"/>
		<path fill="#C6492C" d="M49.371,8.129c-0.031-0.033-0.072-0.054-0.119-0.062c-0.066-0.029-0.129-0.055-0.184-0.066
			c-0.23-0.055-0.451,0.128-0.486,0.358c-0.025,0.16-0.068,0.314-0.084,0.472c-0.074,0.252-0.084,0.522,0.031,0.749
			c0.072,0.145,0.217,0.168,0.361,0.152c0.518-0.058,1.012-0.401,1.008-0.955C49.896,8.529,49.633,8.279,49.371,8.129z"/>
		<path fill="#C6492C" d="M52.463,11.645c-0.063-0.165-0.162-0.352-0.281-0.482c-0.189-0.22-0.561-0.03-0.701,0.146
			c0,0.001,0,0.002-0.002,0.002c-0.223,0.153-0.379,0.388-0.42,0.659c-0.096,0.598,0.746,0.665,1.102,0.431
			C52.4,12.245,52.568,11.929,52.463,11.645z"/>
		<path fill="#C6492C" d="M46.039,13.457c-0.039,0.017-0.074,0.037-0.107,0.057c-0.059,0.013-0.119,0.043-0.172,0.074
			c-0.115,0.068-0.195,0.229-0.18,0.359c0.027,0.22,0.229,0.287,0.42,0.271c0.219-0.019,0.369-0.245,0.398-0.44
			C46.432,13.571,46.248,13.361,46.039,13.457z"/>
		<path fill="#C6492C" d="M47.803,12.701c-0.02-0.006-0.037-0.011-0.053-0.017c-0.23-0.076-0.314,0.347-0.107,0.291
			c0.021-0.007,0.043-0.012,0.064-0.018C47.785,12.936,47.945,12.749,47.803,12.701z"/>
	</g>
	<g>
		<path fill="#DA4F32" d="M49.445,42.463c0.008-0.078,0.008-0.156,0-0.236c-0.008-0.111-0.053-0.242-0.111-0.338
			c-0.098-0.162-0.227-0.346-0.387-0.457c-0.332-0.232-0.727-0.064-0.984,0.199c-0.043,0.045-0.082,0.098-0.115,0.152
			c-0.365,0.234-0.605,0.715-0.652,1.127c-0.023,0.236,0.061,0.514,0.307,0.6c0.207,0.072,0.371,0.064,0.584,0.041
			c0.023-0.002,0.045-0.006,0.068-0.012c0.016-0.002,0.053-0.006,0.082-0.004c0.52,0.02,0.973-0.33,1.152-0.811
			c0.018-0.064,0.033-0.127,0.049-0.195C49.381,42.723,49.385,42.699,49.445,42.463z"/>
		<path fill="#DA4F32" d="M50.713,38.57c-0.119-0.16-0.393-0.004-0.484,0.098c-0.008,0.008-0.018,0.021-0.025,0.031
			c-0.289,0.162-0.416,0.584-0.027,0.734c0.242,0.094,0.482-0.055,0.619-0.248C50.951,38.963,50.857,38.76,50.713,38.57z"/>
		<path fill="#DA4F32" d="M40.742,38.238c-0.035-0.031-0.072-0.051-0.121-0.061c-0.064-0.029-0.127-0.055-0.182-0.066
			c-0.23-0.053-0.451,0.131-0.486,0.359c-0.025,0.158-0.068,0.314-0.086,0.473c-0.074,0.252-0.082,0.521,0.033,0.748
			c0.072,0.145,0.217,0.166,0.361,0.148c0.516-0.055,1.012-0.398,1.01-0.951C41.268,38.639,41.004,38.391,40.742,38.238z"/>
		<path fill="#DA4F32" d="M43.832,41.756c-0.061-0.164-0.162-0.352-0.277-0.484c-0.191-0.217-0.563-0.027-0.703,0.148
			c-0.002,0-0.002,0.002-0.002,0.004c-0.223,0.152-0.379,0.387-0.422,0.656c-0.094,0.596,0.746,0.666,1.102,0.434
			C43.771,42.354,43.938,42.039,43.832,41.756z"/>
		<path fill="#DA4F32" d="M37.406,43.568c-0.033,0.014-0.07,0.037-0.105,0.059c-0.057,0.01-0.117,0.041-0.172,0.07
			c-0.113,0.068-0.195,0.23-0.178,0.359c0.027,0.219,0.23,0.289,0.422,0.271c0.217-0.02,0.367-0.244,0.396-0.441
			C37.803,43.682,37.619,43.473,37.406,43.568z"/>
		<path fill="#DA4F32" d="M39.172,42.813c-0.018-0.006-0.035-0.012-0.053-0.018c-0.227-0.076-0.311,0.348-0.105,0.291
			c0.023-0.006,0.043-0.012,0.064-0.018C39.156,43.047,39.316,42.859,39.172,42.813z"/>
	</g>
</g>
</svg>
