<?xml version="1.0" encoding="utf-8"?>
<!-- Generator: Adobe Illustrator 16.0.0, SVG Export Plug-In . SVG Version: 6.00 Build 0)  -->
<!DOCTYPE svg PUBLIC "-//W3C//DTD SVG 1.1//EN" "http://www.w3.org/Graphics/SVG/1.1/DTD/svg11.dtd">
<svg version="1.1" id="Calque_1" xmlns="http://www.w3.org/2000/svg" xmlns:xlink="http://www.w3.org/1999/xlink" x="0px" y="0px"
	 width="65px" height="65px" viewBox="0 0 65 65" enable-background="new 0 0 65 65" xml:space="preserve">
<g>
	<rect x="-13.884" y="-0.248" fill="#858486" width="101.551" height="66.596"/>
	<rect x="-13.884" y="-4.313" fill="#7C7B7C" width="101.551" height="4.065"/>
	<rect x="-13.884" y="-0.248" fill="#343635" width="101.551" height="0.646"/>
	<g>
		<path fill="#343635" d="M2.866,61.639c-0.554-2.954-2.537-7.103-5.764-7.91c-2.86-0.718-4.829,1.178-6.27,3.345
			c-0.226,0.341-0.615,0.94-1.05,1.679c-0.1,0.29-0.178,0.585-0.229,0.889c-0.354,2.161,0.526,4.47,2.495,5.478
			C-2.521,66.037,3.786,66.543,2.866,61.639z"/>
		<path fill="#343635" d="M13.245,45.613c-4.081-2.371-8.957-2.814-11.496,2.455c-0.703,1.46-1.83,4.094-1.137,5.727
			c0.642,1.51,2.898,2.082,4.313,2.492c1.971,0.572,4.01,0.86,6.063,0.81c2.515-0.063,5.614-0.009,7.384-2.157
			c2.109-2.561-0.452-5.675-2.435-7.395C15.109,46.829,14.2,46.168,13.245,45.613z"/>
		<path fill="#343635" d="M0.36,41.624c-1.417-0.854-3.05-1.344-4.64-1.776c-0.9-0.245-1.859-0.525-2.786-0.498
			c-0.447,0.202-0.929,0.324-1.411,0.355c-0.229,0.117-0.451,0.266-0.667,0.46c-0.577,0.521-1.056,1.138-1.445,1.811
			c-0.863,1.493-1.887,3.488-1.274,5.24c0.666,1.759,1.886,3.247,3.885,4.135c1.442,0.643,4.464,1.86,5.846,0.476
			c0.453-0.454,0.779-0.986,1.058-1.546c0.498-1.48,1.181-2.968,2.072-4.288C1.789,44.42,2.263,42.772,0.36,41.624z"/>
		<path fill="#343635" d="M18.914,61.205c-0.652-1.365-2.268-2.518-4.516-2.543c-1.206-0.014-2.406,0.15-3.608,0.029
			c-1.78-0.179-3.582-0.737-5.005,0.669c-1.13,1.114-1.457,2.874-1.23,4.396c0.415,2.786,4.043,1.771,5.93,1.792
			C13.003,65.577,21.274,66.143,18.914,61.205z"/>
		<path fill="#343635" d="M20.655,59.127c0.522,3.531,3.015,7.002,7.09,5.88c2.556-0.702,4.845-0.402,4.404-5.159
			c-0.236-2.549-1.871-5.207-3.479-7.11c-0.824-0.975-1.75-2.07-2.908-2.656c-4.394-2.222-4.935,4.17-5.177,6.918
			C20.524,57.685,20.549,58.407,20.655,59.127z"/>
		<path fill="#343635" d="M37.975,65.46c0.896,0.029,1.748-0.039,2.378-0.155c3.393-0.62,1.471-3.935-0.711-4.854
			c-1.361-0.573-3.021-1.29-4.5-0.775c-1.379,0.481-2.512,2.88-1.537,4.211C34.421,64.999,36.279,65.405,37.975,65.46z"/>
		<path fill="#343635" d="M63.404,65.861c1.099,0.037,2.141-0.048,2.911-0.19c4.159-0.761,3.047-2.256,1.432-4.274
			c-1.131-1.413-3.032-2.516-4.846-1.885c-1.69,0.589-8.867,4.023-7.672,5.653C56.23,66.529,61.324,65.794,63.404,65.861z"/>
		<path fill="#343635" d="M63.4,46.663c-2.576-2.352-5.915-5.22-9.672-4.625c-1.54,0.243-3.012,0.985-4.236,1.92
			c-2.103,1.603-3.896,2.959-4.804,5.564c-0.932,2.672-1.2,6.255-0.338,8.989c0.807,2.553,3.152,4.012,5.674,4.368
			c3.584,0.506,6.414-2.402,9.246-4.11c2.355-1.419,6.377-2.469,7.063-5.521C66.871,50.85,64.557,48.504,63.4,46.663z"/>
		<path fill="#343635" d="M69.451,47.422c1.373-0.796,3.165-1.705,3.87-3.217c1.453-3.121-1.063-9.209-5.16-8.099
			c-1.946,0.525-3.726,1.712-5.205,3.064c-1.646,1.508-1.316,2.996-0.201,4.707c0.639,0.979,1.453,2.172,2.4,3.262
			c0.083,0.092,0.163,0.184,0.244,0.276c0.119,0.133,0.239,0.264,0.361,0.389C66.865,48.247,68.007,48.26,69.451,47.422z"/>
		<path fill="#343635" d="M86.297,38.963c0.583-2.968,0.541-7.788-2.88-8.853c-2.894-0.899-5.939,1.769-7.842,3.624
			c-0.747,0.725-1.422,1.566-1.657,2.539c-0.418,1.731,0.384,3.492,1.333,4.915c1.562,2.338,5.123,3.776,8.018,4.022
			c1.6,0.136,2.692-4.742,2.949-5.87C86.245,39.218,86.271,39.092,86.297,38.963z"/>
		<path fill="#343635" d="M-2.478,38.445c3.087,2.088,5.159,4.632,9.161,3.75c1.765-0.388,4.212,0.136,5.67-1.163
			c2.875-2.562,0.205-6.414-1.658-8.593c-0.089-0.104-0.18-0.205-0.27-0.309c-0.103-0.056-0.188-0.149-0.231-0.264
			c-1.413-1.579-2.983-3.041-4.765-4.196c-1.439-0.935-3.419-2.363-5.215-2.302c-3.304,0.111-4.901,4.14-5.569,6.859
			C-5.999,34.848-4.597,37.011-2.478,38.445z"/>
		<path fill="#343635" d="M28.27,43.83c0.148-0.166,0.312-0.327,0.495-0.479c1.815-1.495,4.688-2.967,5.085-5.522
			c0.359-2.322-1.053-4.694-3.136-5.688c-2.436-1.162-5.945-0.058-8.423,0.479c-0.932,0.201-1.807,0.58-2.697,0.912
			c-0.988,0.369-2.153,0.349-2.999,1.046c-2.465,2.035-2.238,7.6-0.268,9.812c0.984,1.106,1.789,2.446,2.979,3.354
			c1.648,1.258,2.879,0.687,4.76,0.439C26.858,47.813,26.797,45.495,28.27,43.83z"/>
		<path fill="#343635" d="M18.041,31.327c0.242-0.817-0.003-1.665-0.595-2.428c-0.667-0.861-1.927-2.118-3.083-2.157
			c-1.982-0.064-3.585,2.119-3.066,3.997c0.298,1.078,1.706,3.575,3.109,3.362c1.183-0.182,2.369-0.934,3.121-1.837
			C17.777,31.96,17.947,31.646,18.041,31.327z"/>
		<path fill="#343635" d="M46.098,35.37c-0.561-1.013-1.423-1.838-2.447-2.091c-1.999-0.492-4.25-0.479-6.176,0.287
			c-2.035,0.81-2.119,2.973-1.998,4.834c0.104,1.595,0.172,2.97,1.744,3.733c1.351,0.651,5.398,1.003,6.854,0.762
			C47.964,42.245,46.566,38.637,46.098,35.37z"/>
		<path fill="#343635" d="M68.144,27.944c-1.645-5.258-12.089-3.066-16.011-1.172c-2.696,1.303-2.982,3.899-3.766,6.5
			c-0.492,1.636-1.225,3.785-0.314,5.415c1.218,2.181,5.277,1.954,7.364,1.815C61.107,40.122,70.365,35.051,68.144,27.944z"/>
		<path fill="#343635" d="M73.594,10.638c-0.379-0.058-0.758-0.114-1.142-0.176c-2.378-0.376-5.29-0.897-7.264,0.862
			c-1.597,1.422-2.132,3.818-2.231,5.871c-0.135,2.783,0.914,5.649,3.507,6.938c2.905,1.446,6.689,0.866,9.581-0.234
			c2.576-0.977,3.337-2.403,4.089-4.939c0.813-2.748,2.468-5.643-1.001-7.022C77.32,11.217,75.477,10.925,73.594,10.638z"/>
		<path fill="#343635" d="M-10.409,38.286c0.624,0.491,1.708-0.207,2.284-0.567c1.664-1.04,0.762-3.255,0.885-4.826
			c0.119-1.537,0.211-3.101,0.821-4.536c0.506-1.196,1.737-2.458,1.807-3.791c0.049-0.938-1.351-2.313-2.238-2.381
			c-0.903-0.069-3.327-1.027-3.864-0.383c-1.353,1.619-1.071,5.386-1.211,7.47c-0.127,1.887,0.364,3.831,0.522,5.722
			C-11.325,35.943-11.262,37.608-10.409,38.286z"/>
		<path fill="#343635" d="M3.761,23.132c0.927-0.204,1.796-0.606,2.485-1.256c1.549-1.465,2.47-3.98,2.051-6.103
			c-0.368-1.869-1.203-3.622-2.564-4.97C4.587,9.667,3.081,8.856,1.48,8.616C-1.038,8.24-3.664,8.248-6.122,8.967
			c-2.262,0.657-4.814,2.47-4.992,5.091c-0.111,1.632,0.94,3.113,2.038,4.211c2.448,2.452,6.323,4.222,9.694,4.876
			C1.623,23.341,2.728,23.361,3.761,23.132z"/>
		<path fill="#343635" d="M10.618,27.625c0.736-1.104,0.671-3.27,0.264-4.045c-0.81-1.547-2.539-0.583-3.212,0.539
			c-0.67,1.117-0.563,2.384,0.16,3.477C8.538,28.666,9.953,28.623,10.618,27.625z"/>
		<path fill="#343635" d="M29.977,18.817c-1.091-5.097-7.117-4.797-11.188-4.959c-2.765-0.11-7.625-0.031-8.558,3.387
			c-1.094,4.023,3.442,7.8,6.392,9.516c1.759,1.023,2.717,2.827,4.786,3.548c1.675,0.583,3.525,0.496,4.989-0.569
			c2.659-1.931,4.041-6.934,3.712-10.079C30.078,19.365,30.034,19.085,29.977,18.817z"/>
		<path fill="#343635" d="M44.67,30.749c2.675-0.761,4.376-4.138,5.12-6.56c0.866-2.825,0.276-5.281,0.013-8.122
			c-0.237-2.583,0.206-6.643-3.473-6.764c-0.75-0.023-1.507-0.085-2.295-0.014c-1.899,0.169-3.796,0.496-5.666,0.87
			c-1.517,0.304-3.011,0.807-4.06,2.005c-1.958,2.24-2.267,5.032-2.692,7.851c-0.221,1.465-0.357,2.96-0.203,4.437
			c0.289,2.788,1.753,5.381,4.578,6.197c1.222,0.352,2.484,0.27,3.739,0.2c1.227-0.069,2.423,0.003,3.648,0.053
			C43.832,30.921,44.263,30.865,44.67,30.749z"/>
		<path fill="#343635" d="M60.027,22.098c0.293-0.174,0.557-0.395,0.783-0.673c1.347-1.658,2.021-8.532-0.983-8.94
			c-1.368-0.187-2.932,0.438-4.118,1.056c-2.85,1.484-4.646,3.128-4.296,6.52c0.066,0.642,0.174,2.458,1.031,2.657
			c0.696,0.162,1.399,0.166,2.109,0.1C56.199,22.662,58.496,23.014,60.027,22.098z"/>
		<path fill="#343635" d="M67.336,2.379c-0.329-0.394-5.798-0.684-7.85-0.557c-2.073,0.13-4.135-0.17-6.206,0.085
			c-1.74,0.213-5.208,1.432-4.116,3.926c0.9,2.059,2.834,3.854,4.962,4.566c2.612,0.874,4.968-0.391,7.365-1.298
			c1.588-0.601,3.446-0.919,4.796-2.008C67.776,5.892,68.405,3.664,67.336,2.379z"/>
		<path fill="#343635" d="M45.866,5.224c2.785-4.76-8.682-2.694-10.285-2.572c-2.163,0.166-5.408-0.936-7.309,0.537
			c-1.475,1.144-0.714,3.718-0.307,5.217c0.298,1.1,0.654,2.618,1.669,3.297c1.556,1.041,3.158-0.485,4.333-1.392
			c1.351-1.042,2.77-1.824,4.473-2.098c1.348-0.216,2.72-0.169,4.061-0.448C43.52,7.554,45.15,6.448,45.866,5.224z"/>
		<path fill="#343635" d="M2.068,2.443C1.381,1.892,0.251,1.884-0.584,1.822c-2.385-0.182-4.754-0.388-7.12-0.637
			c-1.189,0.345-2.286,0.848-3.157,1.631c-0.263,0.409-0.429,0.876-0.471,1.402c0.022,0.051,0.041,0.103,0.065,0.152
			c0.451,0.965,0.773,2.178,1.937,2.471c1.075,0.271,2.261-0.336,3.325-0.441c1.978-0.197,3.981,0.614,5.953,0.336
			C0.881,6.604,1.85,6.14,2.333,5.291c0.07-0.126,0.131-0.283,0.178-0.459C2.713,4.049,2.638,2.899,2.068,2.443z"/>
		<path fill="#343635" d="M24.653,5.707c-0.145-3.506-2.56-4.189-5.642-4.13c-1.753,0.033-3.501,0.164-5.248,0.299
			c-2.035,0.157-7.136-0.388-9.006,0.568C1.71,4.002,6.31,8.195,8.39,10.519c3.006,3.357,5.326,0.213,8.938-0.119
			c1.929-0.177,4.3,0.746,6.155-0.047c1.602-0.686,1.172-2.379,1.183-3.791C24.667,6.272,24.664,5.986,24.653,5.707z"/>
		<path fill="#343635" d="M86.312,3.619c-0.288-0.715-0.906-1.249-2.101-1.468c-2.26-0.42-5.743-1.188-8.03-0.667
			c-1.562,0.357-2.886,1.097-3.37,2.467c0.012,0.439-0.06,0.906-0.194,1.376c0.028,1.702,0.483,2.833,2.094,3.484
			c2.016,0.814,4.064,1.496,6.1,2.255c1.309,0.489,2.935,0.747,4.115-0.196c1.198-0.957,1.188-2.586,1.402-3.967
			C86.517,5.689,86.671,4.512,86.312,3.619z"/>
		<path fill="#343635" d="M72.919,31.714c1.545-0.805,4.353-2.094,5.066-3.778c1.366-3.212-4.176-2.21-5.464-1.772
			c-0.213,0.072-0.422,0.154-0.633,0.232c-0.995,0.621-1.927,1.626-1.806,2.59C70.28,30.548,70.992,32.719,72.919,31.714z"/>
		<path fill="#343635" d="M81.239,26.876c1.383,0.078,3.53-1.786,4.086-2.67c1.018-1.626,0.982-4.9,0.516-6.718
			c-0.587-2.282-2.98-0.157-3.781,0.788c-1.306,1.544-2.335,5.418-1.962,7.391C80.256,26.505,80.686,26.844,81.239,26.876z"/>
		<path fill="#343635" d="M70.287,62.074c0.721,1.164,1.812,2.106,3.38,2.699c3.547,1.34,8.251,0.249,11.064-2.296
			c4.149-3.753,1.921-11.452-1.58-14.99c-1.506-1.521-3.105-2.168-4.667-2.176c-5.039-0.03-8.854,5.791-9.305,10.298
			C68.942,57.967,69.176,60.282,70.287,62.074z"/>
		<path fill="#343635" d="M41.904,56.028c0.087-0.185,0.166-0.378,0.234-0.583c0.604-1.794,0.771-3.67,0.926-5.546
			c0.196-2.381,0.872-5.202-2.34-5.806c-2.044-0.384-4.178-0.281-6.234-0.03c-1.681,0.203-4.628,0.313-5.424,2.142
			c-1.163,2.671,1.524,6.297,2.523,8.687c0.035,0.081,0.041,0.158,0.03,0.224c1.327,1.974,3.034,3.905,5.636,3.741
			c0.41-0.026,0.805-0.082,1.184-0.166c0.09-0.062,0.199-0.095,0.316-0.081c1.26-0.349,2.293-1.067,2.955-2.224
			C41.719,56.253,41.794,56.119,41.904,56.028z"/>
	</g>
	<g>
		<path fill="#5E6B70" d="M2.463,60.966c-0.554-2.952-2.539-7.102-5.765-7.911c-2.862-0.716-4.83,1.18-6.27,3.346
			c-0.227,0.34-0.615,0.942-1.05,1.678c-0.099,0.289-0.179,0.585-0.229,0.891c-0.354,2.159,0.527,4.47,2.495,5.477
			C-2.923,65.364,3.382,65.869,2.463,60.966z"/>
		<path fill="#555655" d="M12.84,44.942c-4.08-2.372-8.958-2.815-11.496,2.455c-0.703,1.457-1.83,4.092-1.136,5.725
			c0.643,1.511,2.898,2.081,4.312,2.493c1.97,0.573,4.01,0.859,6.063,0.809c2.517-0.063,5.614-0.009,7.384-2.157
			c2.11-2.56-0.451-5.676-2.434-7.394C14.705,46.155,13.795,45.496,12.84,44.942z"/>
		<path fill="#646463" d="M7.04,48.117c3.149-0.287,6.351,0.587,9.415,1.514c-0.499-0.643-1.08-1.221-1.614-1.686
			c-0.734-0.634-1.542-1.221-2.39-1.712c-3.621-2.106-7.95-2.5-10.204,2.179c-0.382,0.793-0.904,1.979-1.112,3.109
			C2.896,49.942,4.719,48.33,7.04,48.117z"/>
		<path fill="#6E6E6E" d="M-0.044,40.951c-1.416-0.854-3.05-1.344-4.639-1.776c-0.9-0.244-1.86-0.525-2.788-0.497
			c-0.446,0.201-0.929,0.323-1.411,0.353c-0.228,0.119-0.451,0.269-0.666,0.462c-0.577,0.52-1.057,1.14-1.444,1.811
			c-0.864,1.494-1.887,3.487-1.274,5.241c0.666,1.758,1.886,3.246,3.884,4.135c1.442,0.642,4.464,1.86,5.847,0.474
			c0.452-0.453,0.779-0.984,1.058-1.547c0.497-1.479,1.179-2.967,2.072-4.286C1.384,43.747,1.859,42.099-0.044,40.951z"/>
		<path fill="#5C5C5B" d="M18.51,60.532c-0.653-1.363-2.267-2.517-4.515-2.543c-1.207-0.014-2.406,0.149-3.609,0.03
			c-1.78-0.18-3.58-0.74-5.005,0.666c-1.129,1.117-1.457,2.876-1.23,4.397c0.416,2.784,4.043,1.77,5.929,1.793
			C12.6,64.903,20.87,65.472,18.51,60.532z"/>
		<path fill="#5E6B70" d="M20.251,58.453c0.521,3.532,3.015,7.002,7.09,5.882c2.556-0.702,4.846-0.405,4.404-5.159
			c-0.236-2.55-1.871-5.208-3.479-7.111c-0.823-0.973-1.751-2.07-2.908-2.656c-4.395-2.223-4.936,4.172-5.178,6.917
			C20.12,57.013,20.145,57.734,20.251,58.453z"/>
		<path fill="#6E6E6E" d="M37.571,64.788c0.896,0.029,1.747-0.041,2.375-0.156c3.396-0.621,1.474-3.934-0.708-4.854
			c-1.361-0.575-3.021-1.291-4.5-0.774c-1.38,0.479-2.513,2.879-1.537,4.209C34.019,64.326,35.875,64.732,37.571,64.788z"/>
		<path fill="#5E5F66" d="M63,65.19c1.097,0.035,2.142-0.05,2.911-0.19c4.16-0.762,3.048-2.258,1.433-4.276
			c-1.131-1.412-3.034-2.516-4.846-1.885c-1.69,0.59-8.867,4.023-7.672,5.652C55.826,65.856,60.922,65.123,63,65.19z"/>
		<path fill="#5C5C5B" d="M62.998,45.991c-2.576-2.352-5.916-5.22-9.674-4.626c-1.541,0.243-3.012,0.985-4.234,1.919
			c-2.105,1.604-3.898,2.961-4.806,5.565c-0.932,2.671-1.199,6.255-0.337,8.989c0.808,2.553,3.151,4.012,5.674,4.368
			c3.585,0.505,6.414-2.402,9.244-4.108c2.356-1.42,6.379-2.471,7.063-5.523C66.468,50.178,64.15,47.831,62.998,45.991z"/>
		<path fill="#646463" d="M48.395,56.24c0.188-2.718,2.42-5.008,3.274-7.518c0.491-1.441,0.779-3.221,2.353-3.867
			c1.838-0.756,3.823-0.753,5.8-0.786c-1.854-1.365-3.965-2.398-6.246-2.039c-1.413,0.224-2.761,0.905-3.883,1.76
			c-1.928,1.471-3.571,2.715-4.403,5.102c-0.854,2.448-1.1,5.733-0.31,8.239c0.704,2.23,2.689,3.547,4.873,3.949
			C49.075,59.529,48.271,57.992,48.395,56.24z"/>
		<path fill="#5E6B70" d="M69.048,46.749c1.372-0.796,3.165-1.705,3.87-3.217c1.452-3.12-1.062-9.207-5.161-8.1
			c-1.946,0.527-3.724,1.713-5.204,3.066c-1.647,1.506-1.316,2.994-0.201,4.707c0.639,0.979,1.454,2.17,2.399,3.261
			c0.082,0.092,0.164,0.184,0.244,0.276c0.12,0.131,0.24,0.263,0.363,0.391C66.459,47.575,67.604,47.586,69.048,46.749z"/>
		<path fill="#6E6E6E" d="M85.893,38.29c0.583-2.967,0.541-7.788-2.879-8.851c-2.894-0.901-5.939,1.767-7.843,3.621
			c-0.745,0.727-1.423,1.567-1.656,2.54c-0.417,1.732,0.384,3.492,1.334,4.916c1.561,2.338,5.121,3.774,8.017,4.022
			c1.599,0.135,2.692-4.742,2.947-5.871C85.841,38.545,85.867,38.42,85.893,38.29z"/>
		<path fill="#787978" d="M78.294,37.512c0.523-1.406,1.324-2.666,2.429-3.696c0.778-0.725,1.599-1.396,2.405-2.085
			c0.066-0.141,0.137-0.28,0.199-0.42c-0.349-0.371-0.783-0.66-1.329-0.83c-2.345-0.729-4.813,1.433-6.355,2.936
			c-0.604,0.588-1.152,1.27-1.342,2.058c-0.338,1.404,0.31,2.83,1.08,3.983c0.502,0.751,1.261,1.386,2.137,1.893
			C77.727,40.059,77.835,38.745,78.294,37.512z"/>
		<path fill="#6E6E6E" d="M-2.881,37.773c3.087,2.087,5.158,4.631,9.161,3.75c1.764-0.391,4.212,0.137,5.67-1.163
			c2.874-2.562,0.205-6.414-1.658-8.595c-0.089-0.103-0.181-0.204-0.27-0.307c-0.104-0.059-0.19-0.151-0.232-0.263
			c-1.412-1.583-2.983-3.042-4.763-4.199c-1.439-0.934-3.421-2.361-5.215-2.302c-3.305,0.111-4.902,4.141-5.57,6.859
			C-6.402,34.173-5.001,36.338-2.881,37.773z"/>
		<path fill="#7E7E7F" d="M0.246,29.729c2.656-0.694,5.379,0.112,8.083,0.904c-1.091-1.13-2.281-2.167-3.599-3.024
			c-1.317-0.854-3.13-2.161-4.773-2.107c-3.025,0.102-4.487,3.789-5.099,6.279c-0.215,0.876-0.178,1.696,0.049,2.451
			C-3.586,32.33-2.022,30.322,0.246,29.729z"/>
		<path fill="#555655" d="M27.866,43.158c0.147-0.169,0.311-0.328,0.495-0.479c1.816-1.497,4.689-2.969,5.084-5.521
			c0.36-2.323-1.051-4.696-3.134-5.69c-2.436-1.162-5.946-0.058-8.424,0.479c-0.932,0.201-1.806,0.582-2.696,0.914
			c-0.988,0.368-2.154,0.347-2.999,1.045c-2.466,2.033-2.238,7.6-0.27,9.81c0.985,1.107,1.79,2.447,2.981,3.355
			c1.647,1.257,2.877,0.688,4.759,0.439C26.454,47.141,26.393,44.821,27.866,43.158z"/>
		<path fill="#646463" d="M20.584,37.657c2.917-2.258,6.091-4.166,9.168-6.203c-2.304-0.647-5.289,0.264-7.46,0.735
			c-0.907,0.195-1.759,0.565-2.625,0.889c-0.962,0.36-2.096,0.338-2.919,1.018c-2.401,1.98-2.179,7.397-0.261,9.552
			c0.691,0.777,1.293,1.671,2.01,2.441C18.354,43.165,18.368,39.371,20.584,37.657z"/>
		<path fill="#5C5C5B" d="M17.637,30.653c0.242-0.816-0.003-1.665-0.594-2.427c-0.667-0.859-1.927-2.118-3.083-2.156
			c-1.983-0.065-3.585,2.119-3.065,3.998c0.298,1.077,1.706,3.573,3.108,3.359c1.184-0.18,2.37-0.931,3.121-1.836
			C17.374,31.288,17.543,30.973,17.637,30.653z"/>
		<path fill="#6E6E6E" d="M45.694,34.695c-0.561-1.01-1.423-1.835-2.448-2.088c-1.997-0.495-4.249-0.48-6.175,0.286
			c-2.034,0.811-2.119,2.973-2,4.835c0.104,1.595,0.173,2.969,1.746,3.731c1.35,0.654,5.397,1.005,6.854,0.761
			C47.56,41.572,46.163,37.965,45.694,34.695z"/>
		<path fill="#5C5C5B" d="M67.739,27.271c-1.644-5.257-12.088-3.064-16.009-1.171c-2.698,1.302-2.984,3.899-3.767,6.498
			c-0.492,1.637-1.226,3.787-0.314,5.416c1.216,2.18,5.276,1.955,7.363,1.815C60.704,39.448,69.962,34.379,67.739,27.271z"/>
		<path fill="#646463" d="M58.757,28.909c2.581-0.654,5.207-1.179,7.813-1.775c-2.49-3.597-11.06-1.732-14.44-0.1
			c-2.515,1.214-2.781,3.635-3.511,6.059c-0.184,0.616-0.406,1.308-0.548,2.016C51.12,32.185,54.489,29.988,58.757,28.909z"/>
		<path fill="#555655" d="M73.19,9.966c-0.379-0.058-0.76-0.115-1.142-0.175c-2.378-0.378-5.291-0.899-7.265,0.859
			c-1.596,1.422-2.131,3.818-2.231,5.871c-0.135,2.785,0.914,5.649,3.506,6.938c2.907,1.444,6.689,0.865,9.583-0.234
			c2.575-0.979,3.337-2.404,4.087-4.94c0.815-2.748,2.469-5.642-1-7.022C76.917,10.543,75.071,10.252,73.19,9.966z"/>
		<path fill="#555655" d="M70.904,14.652c2.28-1.378,4.832-2.106,7.354-2.901c-1.635-0.636-3.296-0.901-4.991-1.158
			c-0.349-0.053-0.698-0.105-1.05-0.161c-2.184-0.347-4.86-0.826-6.673,0.79c-1.466,1.307-1.959,3.509-2.05,5.394
			c-0.126,2.553,0.836,5.181,3.21,6.368C67.387,19.798,67.814,16.52,70.904,14.652z"/>
		<path fill="#5E6B70" d="M-10.813,37.613c0.625,0.491,1.708-0.207,2.284-0.566c1.664-1.042,0.763-3.256,0.884-4.828
			c0.119-1.536,0.212-3.098,0.821-4.536c0.507-1.194,1.737-2.456,1.808-3.789c0.048-0.939-1.35-2.314-2.238-2.382
			c-0.904-0.07-3.326-1.026-3.864-0.381c-1.352,1.619-1.072,5.386-1.211,7.469c-0.128,1.888,0.364,3.832,0.521,5.721
			C-11.728,35.271-11.666,36.937-10.813,37.613z"/>
		<path fill="#555655" d="M3.356,22.46c0.928-0.204,1.798-0.606,2.485-1.257c1.548-1.464,2.47-3.98,2.051-6.103
			c-0.368-1.867-1.202-3.622-2.564-4.97C4.184,8.994,2.678,8.183,1.077,7.944c-2.519-0.376-5.144-0.37-7.604,0.349
			c-2.261,0.659-4.814,2.471-4.992,5.094c-0.109,1.63,0.941,3.11,2.04,4.21c2.447,2.451,6.322,4.223,9.693,4.877
			C1.219,22.67,2.323,22.688,3.356,22.46z"/>
		<path fill="#5C5C5B" d="M10.215,26.951c0.735-1.103,0.67-3.267,0.262-4.044c-0.809-1.545-2.538-0.582-3.211,0.54
			c-0.671,1.117-0.562,2.383,0.16,3.475C8.135,27.994,9.549,27.95,10.215,26.951z"/>
		<path fill="#5C5C5B" d="M29.573,18.146c-1.091-5.097-7.117-4.798-11.189-4.96c-2.764-0.11-7.625-0.029-8.556,3.387
			c-1.095,4.024,3.441,7.8,6.391,9.517c1.758,1.022,2.718,2.828,4.785,3.548c1.675,0.583,3.526,0.496,4.99-0.568
			c2.657-1.932,4.04-6.935,3.711-10.08C29.675,18.692,29.629,18.412,29.573,18.146z"/>
		<path fill="#555655" d="M44.266,30.077c2.676-0.761,4.377-4.136,5.121-6.561c0.867-2.826,0.276-5.28,0.013-8.122
			c-0.237-2.583,0.207-6.642-3.474-6.762c-0.75-0.024-1.506-0.086-2.293-0.015c-1.903,0.171-3.798,0.495-5.668,0.87
			c-1.517,0.304-3.01,0.807-4.059,2.006c-1.958,2.239-2.267,5.033-2.692,7.851c-0.22,1.465-0.357,2.958-0.203,4.438
			c0.289,2.788,1.752,5.381,4.577,6.196c1.224,0.354,2.485,0.27,3.738,0.201c1.228-0.069,2.426,0.002,3.65,0.051
			C43.429,30.247,43.858,30.191,44.266,30.077z"/>
		<path fill="#646463" d="M39.769,26.353c-0.858-0.914-1.895-1.701-2.666-2.695c-1.515-1.952-1.107-3.667-0.102-5.791
			c0.985-2.081,1.08-4.748,3.349-5.926c2.085-1.083,4.47-1.081,6.632-1.89c-0.41-0.284-0.94-0.459-1.629-0.482
			c-0.687-0.022-1.376-0.079-2.095-0.012c-1.737,0.154-3.467,0.451-5.174,0.794c-1.385,0.277-2.749,0.736-3.707,1.831
			c-1.787,2.045-2.069,4.594-2.458,7.168c-0.201,1.336-0.326,2.701-0.185,4.051c0.263,2.546,1.599,4.913,4.179,5.657
			c1.116,0.322,2.269,0.246,3.413,0.183c0.966-0.054,1.913-0.012,2.873,0.029C41.438,28.252,40.627,27.265,39.769,26.353z"/>
		<path fill="#5C5C5B" d="M59.624,21.425c0.292-0.173,0.555-0.394,0.782-0.673c1.349-1.657,2.023-8.532-0.982-8.94
			c-1.368-0.185-2.932,0.438-4.118,1.056c-2.851,1.485-4.645,3.128-4.297,6.52c0.067,0.642,0.174,2.459,1.03,2.657
			c0.696,0.162,1.399,0.167,2.11,0.1C55.796,21.989,58.092,22.341,59.624,21.425z"/>
		<path fill="#5C5C5B" d="M66.932,1.708c-0.328-0.395-5.798-0.685-7.85-0.556c-2.073,0.128-4.134-0.172-6.205,0.083
			c-1.739,0.214-5.208,1.433-4.117,3.926c0.901,2.06,2.835,3.855,4.962,4.567c2.612,0.875,4.968-0.392,7.365-1.299
			c1.589-0.601,3.446-0.918,4.797-2.007C67.373,5.22,68.003,2.99,66.932,1.708z"/>
		<path fill="#5E6B70" d="M45.462,4.551c2.785-4.759-8.681-2.694-10.284-2.571c-2.163,0.166-5.409-0.938-7.31,0.537
			c-1.475,1.142-0.714,3.717-0.308,5.215c0.3,1.101,0.655,2.618,1.67,3.297c1.557,1.042,3.158-0.484,4.334-1.392
			c1.35-1.042,2.769-1.824,4.472-2.098c1.347-0.215,2.722-0.17,4.062-0.448C43.114,6.881,44.746,5.775,45.462,4.551z"/>
		<path fill="#5E6B70" d="M1.663,1.77c-0.686-0.55-1.816-0.558-2.651-0.621C-3.374,0.968-5.742,0.76-8.109,0.512
			c-1.189,0.345-2.286,0.85-3.156,1.633c-0.263,0.409-0.428,0.876-0.471,1.401c0.023,0.05,0.041,0.102,0.064,0.152
			c0.45,0.964,0.774,2.177,1.938,2.471c1.075,0.271,2.261-0.335,3.325-0.443c1.976-0.197,3.98,0.616,5.951,0.336
			C0.477,5.93,1.445,5.468,1.929,4.619c0.072-0.128,0.133-0.284,0.178-0.46C2.311,3.377,2.234,2.227,1.663,1.77z"/>
		<path fill="#6E6E6E" d="M24.249,5.033c-0.145-3.505-2.56-4.188-5.642-4.13c-1.752,0.033-3.501,0.164-5.249,0.301
			c-2.034,0.157-7.136-0.39-9.006,0.567C1.306,3.329,5.906,7.523,7.987,9.847c3.004,3.357,5.326,0.212,8.937-0.12
			c1.929-0.176,4.301,0.745,6.156-0.048c1.601-0.686,1.17-2.376,1.181-3.791C24.263,5.599,24.261,5.313,24.249,5.033z"/>
		<path fill="#6E6E6E" d="M85.908,2.946c-0.289-0.715-0.905-1.247-2.101-1.468c-2.26-0.419-5.744-1.188-8.03-0.666
			c-1.563,0.355-2.886,1.096-3.37,2.466c0.013,0.438-0.06,0.906-0.194,1.375c0.026,1.702,0.483,2.833,2.092,3.484
			c2.018,0.815,4.067,1.496,6.102,2.257c1.307,0.488,2.936,0.745,4.113-0.196c1.199-0.958,1.19-2.587,1.404-3.966
			C86.112,5.017,86.267,3.839,85.908,2.946z"/>
		<path fill="#5C5C5B" d="M72.517,31.042c1.545-0.807,4.352-2.095,5.065-3.778c1.365-3.215-4.175-2.211-5.464-1.774
			c-0.212,0.072-0.423,0.155-0.633,0.233c-0.996,0.62-1.928,1.625-1.806,2.59C69.877,29.877,70.589,32.046,72.517,31.042z"/>
		<path fill="#5E6B70" d="M80.836,26.203c1.383,0.077,3.528-1.785,4.085-2.671c1.019-1.624,0.982-4.899,0.515-6.716
			c-0.585-2.283-2.979-0.159-3.778,0.786c-1.308,1.545-2.336,5.418-1.964,7.391C79.851,25.831,80.282,26.173,80.836,26.203z"/>
		<path fill="#555655" d="M69.884,61.402c0.721,1.162,1.81,2.104,3.381,2.698c3.546,1.341,8.25,0.249,11.063-2.295
			c4.149-3.753,1.92-11.453-1.579-14.991c-1.507-1.521-3.106-2.167-4.667-2.177c-5.039-0.03-8.854,5.792-9.307,10.298
			C68.537,57.296,68.771,59.609,69.884,61.402z"/>
		<path fill="#696A69" d="M74.783,51.419c0.336-1.771,0.896-2.633,2.413-3.578c1.013-0.633,2.053-1.238,3.085-1.857
			c-0.668-0.266-1.338-0.4-1.999-0.403c-4.759-0.027-8.361,5.47-8.789,9.725c-0.223,2.229-0.002,4.416,1.047,6.109
			c0.65,1.047,1.621,1.9,2.996,2.465C73.661,59.701,74.011,55.513,74.783,51.419z"/>
		<path fill="#555655" d="M41.501,55.355c0.087-0.186,0.166-0.378,0.235-0.582c0.601-1.796,0.77-3.67,0.925-5.546
			c0.197-2.382,0.871-5.202-2.34-5.807c-2.044-0.384-4.179-0.281-6.234-0.032c-1.682,0.206-4.629,0.313-5.425,2.144
			c-1.161,2.672,1.525,6.298,2.523,8.687c0.035,0.082,0.041,0.156,0.031,0.224c1.327,1.974,3.035,3.906,5.636,3.741
			c0.409-0.025,0.805-0.081,1.183-0.167c0.091-0.062,0.199-0.094,0.317-0.079c1.259-0.351,2.292-1.067,2.953-2.225
			C41.315,55.581,41.388,55.446,41.501,55.355z"/>
	</g>
	<defs>
		<filter id="Adobe_OpacityMaskFilter" filterUnits="userSpaceOnUse" x="-12.878" y="-3.486" width="90.172" height="1.676">
			<feFlood  style="flood-color:white;flood-opacity:1" result="back"/>
			<feBlend  in="SourceGraphic" in2="back" mode="normal"/>
		</filter>
	</defs>
	<mask maskUnits="userSpaceOnUse" x="-12.878" y="-3.486" width="90.172" height="1.676" id="SVGID_1_">
		<g filter="url(#Adobe_OpacityMaskFilter)">
			<defs>
				<filter id="Adobe_OpacityMaskFilter_1_" filterUnits="userSpaceOnUse" x="-12.878" y="-3.486" width="90.172" height="1.676">
					<feFlood  style="flood-color:white;flood-opacity:1" result="back"/>
					<feBlend  in="SourceGraphic" in2="back" mode="normal"/>
				</filter>
			</defs>
			<mask maskUnits="userSpaceOnUse" x="-12.878" y="-3.486" width="90.172" height="1.676" id="SVGID_1_">
				<g filter="url(#Adobe_OpacityMaskFilter_1_)">
				</g>
			</mask>
			<radialGradient id="SVGID_2_" cx="29.4663" cy="-18.5679" r="31.1464" gradientUnits="userSpaceOnUse">
				<stop  offset="0.0022" style="stop-color:#FFFFFF"/>
				<stop  offset="0.1645" style="stop-color:#FCFCFC"/>
				<stop  offset="0.2947" style="stop-color:#F2F2F2"/>
				<stop  offset="0.4138" style="stop-color:#E1E1E1"/>
				<stop  offset="0.5262" style="stop-color:#C9C9C9"/>
				<stop  offset="0.6341" style="stop-color:#AAAAAA"/>
				<stop  offset="0.7384" style="stop-color:#858585"/>
				<stop  offset="0.8401" style="stop-color:#585858"/>
				<stop  offset="0.937" style="stop-color:#252525"/>
				<stop  offset="1" style="stop-color:#000000"/>
			</radialGradient>
			<polygon mask="url(#SVGID_1_)" fill="url(#SVGID_2_)" points="77.294,-3.486 -12.878,-3.486 -12.878,-1.81 			"/>
		</g>
	</mask>
	<radialGradient id="SVGID_3_" cx="29.4663" cy="-18.5679" r="31.1464" gradientUnits="userSpaceOnUse">
		<stop  offset="0.0022" style="stop-color:#FFFFFF"/>
		<stop  offset="0.9102" style="stop-color:#FFFFFF"/>
		<stop  offset="1" style="stop-color:#FFFFFF"/>
	</radialGradient>
	<polygon fill="url(#SVGID_3_)" points="77.294,-3.486 -12.878,-3.486 -12.878,-1.81 	"/>
</g>
</svg>
